<?xml version="1.0" encoding="UTF-8" standalone="no"?>
<svg width="152px" height="46px" viewBox="0 0 152 46" version="1.1" xmlns="http://www.w3.org/2000/svg" xmlns:xlink="http://www.w3.org/1999/xlink">
    <!-- Generator: Sketch 3.6.1 (26313) - http://www.bohemiancoding.com/sketch -->
    <title>lightMark-05</title>
    <desc>Created with Sketch.</desc>
    <defs></defs>
    <g id="Landing" stroke="none" stroke-width="1" fill="none" fill-rule="evenodd">
        <g id="home" transform="translate(-370.000000, -21.000000)" fill="#F0E6BF">
            <g id="nav-copy-2">
                <g id="lightMark-05" transform="translate(370.000000, 21.000000)">
                    <g id="Layer_1">
                        <g id="Group">
                            <g transform="translate(67.485477, 18.273973)" id="Shape">
                                <path d="M2.72843154,3.67306849 C2.72843154,3.10720548 2.42632365,2.84317808 1.89842324,2.84317808 L0.274356846,2.84317808 L0.274356846,0.503479452 L3.06901245,0.503479452 C4.69307884,0.503479452 5.37234855,1.18276712 5.37234855,2.80473973 L5.37234855,23.8582466 C5.37234855,24.4234795 5.67445643,24.688137 6.20298755,24.688137 L15.0019585,24.688137 C15.5304896,24.688137 15.8325975,24.4234795 15.8325975,23.8582466 L15.8325975,22.0850411 L18.3245145,22.0850411 L18.3245145,24.7259452 C18.3245145,26.3479178 17.6452448,27.0272055 16.0211784,27.0272055 L5.03176763,27.0272055 C3.40833195,27.0272055 2.72843154,26.3479178 2.72843154,24.7259452 L2.72843154,3.67306849 L2.72843154,3.67306849 Z"></path>
                                <path d="M21.5726473,2.84317808 L19.1179419,2.84317808 L19.1179419,0.503479452 L34.2990207,0.503479452 C35.9224564,0.503479452 36.6023568,1.18276712 36.6023568,2.80473973 L36.6023568,5.44564384 L34.1098091,5.44564384 L34.1098091,3.67306849 C34.1098091,3.10720548 33.8077012,2.84317808 33.2791701,2.84317808 L24.2159336,2.84317808 L24.2159336,12.5019178 L34.1861245,12.5019178 L34.1861245,14.8409863 L24.2159336,14.8409863 L24.2159336,23.8588767 C24.2159336,24.4241096 24.5180415,24.6887671 25.0465726,24.6887671 L34.3740747,24.6887671 C34.9032365,24.6887671 35.2047137,24.4241096 35.2047137,23.8588767 L35.2047137,22.0856712 L37.6600498,22.0856712 L37.6600498,24.7265753 C37.6600498,26.3485479 36.9801494,27.0278356 35.356083,27.0278356 L23.8766141,27.0278356 C22.2525477,27.0278356 21.5726473,26.3485479 21.5726473,24.7265753 L21.5726473,2.84317808 L21.5726473,2.84317808 Z"></path>
                                <path d="M53.3324481,0.0510410959 C59.4881328,0.0510410959 62.6221079,3.2949863 62.6221079,3.2949863 L61.0737261,5.25723288 C61.0737261,5.25723288 58.128332,2.54008219 53.3696598,2.54008219 C47.4031867,2.54008219 42.8337261,7.33164384 42.8337261,13.7086301 C42.8337261,20.235589 47.3275021,24.9893425 53.3324481,24.9893425 C58.5811784,24.9893425 61.7157842,21.1032877 61.7157842,21.1032877 L61.7157842,17.8209041 C61.7157842,17.2550411 61.4136763,16.9910137 60.8851452,16.9910137 L59.2617095,16.9910137 L59.2617095,14.6513151 L61.9049959,14.6513151 C63.5284315,14.6513151 64.208332,15.3306027 64.208332,16.9532055 L64.208332,27.0265753 L61.7914689,27.0265753 L61.7914689,25.0265205 C61.7914689,24.4612877 61.8293112,23.8947945 61.8293112,23.8947945 L61.7542573,23.8947945 C61.7542573,23.8947945 58.6574938,27.4790137 53.0688133,27.4790137 C45.8182241,27.4790137 40.0775436,21.6685205 40.0775436,13.708 C40.0775436,6.08775342 45.8175934,0.0510410959 53.3324481,0.0510410959 L53.3324481,0.0510410959 Z"></path>
                                <path d="M69.1934274,21.7832055 C69.1934274,21.7832055 71.874556,25.0271507 76.0662241,25.0271507 C78.9737759,25.0271507 81.3149544,23.1411507 81.3149544,20.3112055 C81.3149544,13.7464384 68.2114191,15.0672055 68.2114191,6.8420274 C68.2114191,3.14438356 71.4210788,0.0510410959 76.3304896,0.0510410959 C78.8980913,0.0510410959 83.5053942,1.1449589 83.5053942,4.61575342 L83.5053942,6.50238356 L81.0134772,6.50238356 L81.0134772,5.25723288 C81.0134772,3.67243836 78.8230373,2.50290411 76.368332,2.50290411 C72.932249,2.50290411 70.93039,4.50232877 70.93039,6.76641096 C70.93039,12.9165479 84.034556,11.4073699 84.034556,20.1606027 C84.034556,24.122274 80.9750041,27.480274 75.9905394,27.480274 C70.5525975,27.480274 67.569361,23.7076438 67.569361,23.7076438 L69.1934274,21.7832055 L69.1934274,21.7832055 Z"></path>
                            </g>
                            <g transform="translate(0.000000, 17.643836)" id="Shape">
                                <path d="M2.98449793,20.1013699 C2.98449793,20.1013699 6.14243983,24.044137 11.036083,24.044137 C13.5097095,24.044137 15.6673527,22.940137 15.6673527,20.6269041 C15.6673527,15.8429041 1.14346888,16.3684384 1.14346888,7.79857534 C1.14346888,2.69887671 5.61643154,0.332712329 11.0367137,0.332712329 C14.2470041,0.332712329 19.7726141,1.43671233 19.7726141,5.48471233 L19.7726141,8.00841096 L15.1943237,8.00841096 L15.1943237,6.69457534 C15.1943237,5.11734247 12.8260249,4.43364384 11.1950207,4.43364384 C8.19538589,4.43364384 6.24839834,5.48471233 6.24839834,7.58810959 C6.24839834,12.6355068 20.7716515,11.5308767 20.7716515,20.4164384 C20.7716515,25.148137 16.5616929,28.1973699 10.9837344,28.1973699 C3.87946888,28.1973699 0.353825726,23.5186027 0.353825726,23.5186027 L2.98449793,20.1013699 L2.98449793,20.1013699 Z"></path>
                                <path d="M27.5580415,6.48473973 C27.5580415,5.69643836 27.137361,5.32843836 26.4006971,5.32843836 L24.2430539,5.32843836 L24.2430539,0.964109589 L29.2420249,0.964109589 C31.6103237,0.964109589 32.6099917,1.96287671 32.6099917,4.3290411 L32.6099917,22.0472329 C32.6099917,22.8355342 33.0313029,23.2035342 33.7679668,23.2035342 L35.92561,23.2035342 L35.92561,27.5672329 L30.9260083,27.5672329 C28.5577095,27.5672329 27.5580415,26.5684658 27.5580415,24.2023014 L27.5580415,6.48473973 L27.5580415,6.48473973 Z"></path>
                                <path d="M47.0802656,13.8976712 L41.9753361,6.32657534 C41.3963485,5.48534247 40.8179917,5.32780822 39.7123651,5.32780822 L38.2390373,5.32780822 L38.2390373,0.964109589 L41.5016763,0.964109589 C43.9753029,0.964109589 44.7119668,1.43734247 46.1329461,3.64534247 L49.3955851,8.7979726 C49.763917,9.4810411 50.2375768,10.4804384 50.2375768,10.4804384 L50.3429046,10.4804384 C50.3429046,10.4804384 50.8165643,9.48167123 51.2372448,8.7979726 L54.4475353,3.64534247 C55.8155353,1.38441096 56.6051784,0.964109589 59.0781743,0.964109589 L62.3937925,0.964109589 L62.3937925,5.32780822 L60.8674855,5.32780822 C59.8154689,5.32780822 59.1311535,5.48534247 58.6045145,6.27427397 L53.5002158,13.8976712 L62.4991203,27.5672329 L56.7628548,27.5672329 L51.131917,18.892137 C50.7635851,18.2613699 50.3429046,17.4724384 50.3429046,17.4724384 L50.2375768,17.4724384 C50.2375768,17.4724384 49.8162656,18.2607397 49.3955851,18.892137 L43.8699751,27.5672329 L38.081361,27.5672329 L47.0802656,13.8976712 L47.0802656,13.8976712 Z"></path>
                            </g>
                            <ellipse id="Oval" cx="30.1527635" cy="11.5371781" rx="2.92773444" ry="2.92509589"></ellipse>
                            <path d="M29.6021577,11.5649041 C29.6021577,11.5649041 29.5933278,11.2889041 29.5781909,10.8062192 C29.5744066,10.685863 29.5699917,10.552274 29.5649461,10.4067123 C29.5466556,10.2724932 29.526473,10.1281918 29.5056598,9.97317808 C29.4659253,9.66315068 29.428083,9.31216438 29.3208631,8.92715068 C29.2754523,8.73432877 29.2275187,8.53394521 29.1783237,8.326 C29.1089461,8.12435616 29.0364149,7.91515068 28.9626224,7.70090411 C28.8345892,7.2629589 28.6024896,6.84013699 28.4094938,6.38076712 C28.1559502,5.95416438 27.929527,5.48660274 27.6072365,5.07071233 C27.3221577,4.62709589 26.9550871,4.23830137 26.6088299,3.82871233 C26.2203154,3.4619726 25.8488299,3.07065753 25.4186888,2.76 C25.0169295,2.41216438 24.5590373,2.15758904 24.1383568,1.87591781 C23.684249,1.656 23.2654606,1.39134247 22.8233361,1.24073973 C22.6070041,1.15441096 22.3957178,1.07060274 22.192,0.989945205 C21.9813444,0.929452055 21.7776266,0.870849315 21.5814772,0.814136986 C21.192332,0.686849315 20.8227386,0.626986301 20.4954025,0.570273973 C20.3314191,0.540657534 20.1787884,0.512931507 20.0368797,0.48709589 C19.8937095,0.475753425 19.7618921,0.465041096 19.6426888,0.455589041 C19.4042822,0.433534247 19.2169627,0.430383562 19.0889295,0.404547945 C18.961527,0.370520548 18.8927801,0.287342466 18.8927801,0.287342466 C18.8927801,0.287342466 18.961527,0.21109589 19.0927137,0.19030137 C19.2239004,0.178328767 19.4150041,0.193452055 19.6597178,0.195972603 C19.7820747,0.199123288 19.9176763,0.20290411 20.0652614,0.206684932 C20.2115851,0.224958904 20.3698921,0.244493151 20.5389212,0.265917808 C20.8782407,0.306246575 21.2623402,0.347835616 21.6697759,0.456849315 C21.8753859,0.504109589 22.089195,0.553890411 22.3112033,0.604931507 C22.5269046,0.67739726 22.7501743,0.752383562 22.9791203,0.829260274 C23.4471037,0.962219178 23.8974274,1.21112329 24.3855934,1.41780822 C24.8409627,1.68687671 25.3366971,1.93073973 25.780083,2.27227397 C26.2505892,2.57726027 26.6662241,2.96605479 27.1001494,3.33594521 C27.4911867,3.74868493 27.9049295,4.1450411 28.2360498,4.60126027 C28.6043817,5.02975342 28.8768465,5.5149589 29.1739087,5.96361644 C29.4085311,6.44567123 29.6898257,6.89180822 29.84561,7.36252055 C29.9345394,7.59315068 30.0215768,7.81810959 30.1054606,8.03550685 C30.1685311,8.25983562 30.2290788,8.47660274 30.2871037,8.68454795 C30.417029,9.09476712 30.4800996,9.49742466 30.5374938,9.85345205 C30.5671369,10.0311507 30.594888,10.1975068 30.6201162,10.3512603 C30.6302075,10.4968219 30.6402988,10.630411 30.6484979,10.7507671 C30.6819253,11.2328219 30.7014772,11.5081918 30.7014772,11.5081918 L29.6021577,11.5649041 L29.6021577,11.5649041 Z" id="Shape"></path>
                            <path d="M29.6021577,11.5088219 C29.6021577,11.5088219 29.6210788,11.2334521 29.6551369,10.7513973 C29.6639668,10.6310411 29.6734274,10.4974521 29.6835187,10.3518904 C29.7093776,10.198137 29.7364979,10.0317808 29.7661411,9.85408219 C29.824166,9.49805479 29.8866058,9.0960274 30.0165311,8.68517808 C30.074556,8.47723288 30.1351037,8.26046575 30.1981743,8.03613699 C30.2820581,7.81873973 30.3690954,7.59441096 30.4580249,7.36315068 C30.6138091,6.89243836 30.8951037,6.44630137 31.1297261,5.96424658 C31.4274191,5.51558904 31.6998838,5.03038356 32.0675851,4.60189041 C32.3987054,4.14567123 32.8124481,3.74868493 33.2034855,3.33657534 C33.6374108,2.96668493 34.0524149,2.57789041 34.5235519,2.27290411 C34.9663071,1.93136986 35.4626722,1.68687671 35.9180415,1.41843836 C36.4068382,1.21112329 36.8565311,0.962849315 37.3245145,0.829890411 C37.5540913,0.753013699 37.7767303,0.678027397 37.9924315,0.605561644 C38.2138091,0.554520548 38.428249,0.504739726 38.6338589,0.457479452 C39.0412946,0.348465753 39.4260249,0.306876712 39.7647137,0.266547945 C39.9337427,0.245123288 40.0920498,0.225589041 40.2383734,0.207315068 C40.3859585,0.203534247 40.5215602,0.199753425 40.643917,0.19660274 C40.8886307,0.194082192 41.0803651,0.178328767 41.2109212,0.190931507 C41.3421079,0.211726027 41.4108548,0.287972603 41.4108548,0.287972603 C41.4108548,0.287972603 41.3421079,0.371150685 41.2147054,0.405178082 C41.0873029,0.430383562 40.8993527,0.434164384 40.6609461,0.456219178 C40.5417427,0.465671233 40.4099253,0.476383562 40.2667552,0.487726027 C40.1248465,0.513561644 39.9722158,0.541287671 39.8082324,0.57090411 C39.4808963,0.628246575 39.1113029,0.687479452 38.7221577,0.814767123 C38.526639,0.870849315 38.3229212,0.929452055 38.1116349,0.990575342 C37.907917,1.07186301 37.6972614,1.15567123 37.4802988,1.24136986 C37.038805,1.3919726 36.6193859,1.65663014 36.165278,1.87654795 C35.7445975,2.15884932 35.2867054,2.41279452 34.8849461,2.76063014 C34.4554357,3.07128767 34.0839502,3.46260274 33.694805,3.82934247 C33.3485477,4.23893151 32.9814772,4.62772603 32.6963983,5.07134247 C32.3741079,5.48723288 32.1476846,5.95479452 31.8941411,6.38139726 C31.7011452,6.84076712 31.4690456,7.26358904 31.3410124,7.70153425 C31.2672199,7.91641096 31.1953195,8.1249863 31.1253112,8.32663014 C31.0761162,8.53457534 31.0281826,8.7349589 30.9827718,8.92778082 C30.8755519,9.31279452 30.8377095,9.66441096 30.7979751,9.97380822 C30.7765311,10.1288219 30.7569793,10.2731233 30.7386888,10.4073425 C30.7336432,10.5529041 30.7292282,10.685863 30.725444,10.8068493 C30.7103071,11.2895342 30.7014772,11.5655342 30.7014772,11.5655342 L29.6021577,11.5088219 L29.6021577,11.5088219 Z" id="Shape"></path>
                        </g>
                    </g>
                </g>
            </g>
        </g>
    </g>
</svg>