<?xml version="1.0" encoding="utf-8"?>
<!-- Generator: Adobe Illustrator 19.2.0, SVG Export Plug-In . SVG Version: 6.00 Build 0)  -->
<svg version="1.1" id="Layer_1" xmlns="http://www.w3.org/2000/svg" xmlns:xlink="http://www.w3.org/1999/xlink" x="0px" y="0px"
	 viewBox="0 0 152 46" style="enable-background:new 0 0 152 46;" xml:space="preserve">
<style type="text/css">
	.st0{fill:#7A0000;}
	.st1{fill:#BF401F;}
</style>
<title>lightMark-05</title>
<desc>Created with Sketch.</desc>
<g id="Landing">
	<g id="home" transform="translate(-370.000000, -21.000000)">
		<g id="nav-copy-2">
			<g id="lightMark-05" transform="translate(370.000000, 21.000000)">
				<g id="Layer_1_1_">
					<g id="Group">
						<g id="Shape" transform="translate(67.485477, 18.273973)">
							<path class="st0" d="M2.7,3.7c0-0.6-0.3-0.8-0.8-0.8H0.3V0.5h2.8c1.6,0,2.3,0.7,2.3,2.3v21.1c0,0.6,0.3,0.8,0.8,0.8H15
								c0.5,0,0.8-0.3,0.8-0.8v-1.8h2.5v2.6c0,1.6-0.7,2.3-2.3,2.3H5c-1.6,0-2.3-0.7-2.3-2.3V3.7L2.7,3.7z"/>
							<path class="st0" d="M21.6,2.8h-2.5V0.5h15.2c1.6,0,2.3,0.7,2.3,2.3v2.6h-2.5V3.7c0-0.6-0.3-0.8-0.8-0.8h-9.1v9.7h10v2.3h-10
								v9c0,0.6,0.3,0.8,0.8,0.8h9.3c0.5,0,0.8-0.3,0.8-0.8v-1.8h2.5v2.6c0,1.6-0.7,2.3-2.3,2.3H23.9c-1.6,0-2.3-0.7-2.3-2.3V2.8
								L21.6,2.8z"/>
							<path class="st0" d="M53.3,0.1c6.2,0,9.3,3.2,9.3,3.2l-1.5,2c0,0-2.9-2.7-7.7-2.7c-6,0-10.5,4.8-10.5,11.2
								c0,6.5,4.5,11.3,10.5,11.3c5.2,0,8.4-3.9,8.4-3.9v-3.3c0-0.6-0.3-0.8-0.8-0.8h-1.6v-2.3h2.6c1.6,0,2.3,0.7,2.3,2.3V27h-2.4
								v-2c0-0.6,0-1.1,0-1.1h-0.1c0,0-3.1,3.6-8.7,3.6c-7.3,0-13-5.8-13-13.8C40.1,6.1,45.8,0.1,53.3,0.1L53.3,0.1z"/>
							<path class="st0" d="M69.2,21.8c0,0,2.7,3.2,6.9,3.2c2.9,0,5.2-1.9,5.2-4.7c0-6.6-13.1-5.2-13.1-13.5c0-3.7,3.2-6.8,8.1-6.8
								c2.6,0,7.2,1.1,7.2,4.6v1.9H81V5.3c0-1.6-2.2-2.8-4.6-2.8c-3.4,0-5.4,2-5.4,4.3c0,6.2,13.1,4.6,13.1,13.4c0,4-3.1,7.3-8,7.3
								c-5.4,0-8.4-3.8-8.4-3.8L69.2,21.8L69.2,21.8z"/>
						</g>
						<g id="Shape_1_" transform="translate(0.000000, 17.643836)">
							<path class="st1" d="M3,20.1c0,0,3.2,3.9,8.1,3.9c2.5,0,4.6-1.1,4.6-3.4c0-4.8-14.5-4.3-14.5-12.8c0-5.1,4.5-7.5,9.9-7.5
								c3.2,0,8.7,1.1,8.7,5.2V8h-4.6V6.7c0-1.6-2.4-2.3-4-2.3c-3,0-4.9,1.1-4.9,3.2c0,5,14.5,3.9,14.5,12.8c0,4.7-4.2,7.8-9.8,7.8
								c-7.1,0-10.6-4.7-10.6-4.7L3,20.1L3,20.1z"/>
							<path class="st1" d="M27.6,6.5c0-0.8-0.4-1.2-1.2-1.2h-2.2V1h5c2.4,0,3.4,1,3.4,3.4V22c0,0.8,0.4,1.2,1.2,1.2h2.2v4.4h-5
								c-2.4,0-3.4-1-3.4-3.4V6.5L27.6,6.5z"/>
							<path class="st1" d="M47.1,13.9L42,6.3c-0.6-0.8-1.2-1-2.3-1h-1.5V1h3.3c2.5,0,3.2,0.5,4.6,2.7l3.3,5.2
								c0.4,0.7,0.8,1.7,0.8,1.7h0.1c0,0,0.5-1,0.9-1.7l3.2-5.2C55.8,1.4,56.6,1,59.1,1h3.3v4.4h-1.5c-1.1,0-1.7,0.2-2.3,0.9
								l-5.1,7.6l9,13.7h-5.7l-5.6-8.7c-0.4-0.6-0.8-1.4-0.8-1.4h-0.1c0,0-0.4,0.8-0.8,1.4l-5.5,8.7h-5.8L47.1,13.9L47.1,13.9z"/>
						</g>
						<ellipse id="Oval" class="st1" cx="30.2" cy="11.5" rx="2.9" ry="2.9"/>
						<path id="Shape_2_" class="st1" d="M29.6,11.6c0,0,0-0.3,0-0.8c0-0.1,0-0.3,0-0.4c0-0.1,0-0.3-0.1-0.4c0-0.3-0.1-0.7-0.2-1
							c0-0.2-0.1-0.4-0.1-0.6C29.1,8.1,29,7.9,29,7.7c-0.1-0.4-0.4-0.9-0.6-1.3c-0.3-0.4-0.5-0.9-0.8-1.3c-0.3-0.4-0.7-0.8-1-1.2
							c-0.4-0.4-0.8-0.8-1.2-1.1c-0.4-0.3-0.9-0.6-1.3-0.9c-0.5-0.2-0.9-0.5-1.3-0.6c-0.2-0.1-0.4-0.2-0.6-0.3
							c-0.2-0.1-0.4-0.1-0.6-0.2c-0.4-0.1-0.8-0.2-1.1-0.2c-0.2,0-0.3-0.1-0.5-0.1c-0.1,0-0.3,0-0.4,0c-0.2,0-0.4,0-0.6-0.1
							c-0.1,0-0.2-0.1-0.2-0.1s0.1-0.1,0.2-0.1c0.1,0,0.3,0,0.6,0c0.1,0,0.3,0,0.4,0c0.1,0,0.3,0,0.5,0.1c0.3,0,0.7,0.1,1.1,0.2
							c0.2,0,0.4,0.1,0.6,0.1c0.2,0.1,0.4,0.1,0.7,0.2c0.5,0.1,0.9,0.4,1.4,0.6c0.5,0.3,1,0.5,1.4,0.9c0.5,0.3,0.9,0.7,1.3,1.1
							c0.4,0.4,0.8,0.8,1.1,1.3C28.6,5,28.9,5.5,29.2,6c0.2,0.5,0.5,0.9,0.7,1.4C29.9,7.6,30,7.8,30.1,8c0.1,0.2,0.1,0.4,0.2,0.6
							c0.1,0.4,0.2,0.8,0.3,1.2c0,0.2,0.1,0.3,0.1,0.5c0,0.1,0,0.3,0,0.4c0,0.5,0.1,0.8,0.1,0.8L29.6,11.6L29.6,11.6z"/>
						<path id="Shape_3_" class="st1" d="M29.6,11.5c0,0,0-0.3,0.1-0.8c0-0.1,0-0.3,0-0.4c0-0.2,0.1-0.3,0.1-0.5
							c0.1-0.4,0.1-0.8,0.3-1.2c0.1-0.2,0.1-0.4,0.2-0.6c0.1-0.2,0.2-0.4,0.3-0.7c0.2-0.5,0.4-0.9,0.7-1.4c0.3-0.4,0.6-0.9,0.9-1.4
							c0.3-0.5,0.7-0.9,1.1-1.3c0.4-0.4,0.8-0.8,1.3-1.1c0.4-0.3,0.9-0.6,1.4-0.9c0.5-0.2,0.9-0.5,1.4-0.6c0.2-0.1,0.5-0.2,0.7-0.2
							c0.2-0.1,0.4-0.1,0.6-0.1c0.4-0.1,0.8-0.2,1.1-0.2c0.2,0,0.3,0,0.5-0.1c0.1,0,0.3,0,0.4,0c0.2,0,0.4,0,0.6,0
							c0.1,0,0.2,0.1,0.2,0.1s-0.1,0.1-0.2,0.1c-0.1,0-0.3,0-0.6,0.1c-0.1,0-0.3,0-0.4,0c-0.1,0-0.3,0.1-0.5,0.1
							c-0.3,0.1-0.7,0.1-1.1,0.2c-0.2,0.1-0.4,0.1-0.6,0.2c-0.2,0.1-0.4,0.2-0.6,0.3c-0.4,0.2-0.9,0.4-1.3,0.6
							c-0.4,0.3-0.9,0.5-1.3,0.9c-0.4,0.3-0.8,0.7-1.2,1.1c-0.3,0.4-0.7,0.8-1,1.2c-0.3,0.4-0.5,0.9-0.8,1.3
							c-0.2,0.5-0.4,0.9-0.6,1.3c-0.1,0.2-0.1,0.4-0.2,0.6c0,0.2-0.1,0.4-0.1,0.6c-0.1,0.4-0.1,0.7-0.2,1c0,0.2,0,0.3-0.1,0.4
							c0,0.1,0,0.3,0,0.4c0,0.5,0,0.8,0,0.8L29.6,11.5L29.6,11.5z"/>
					</g>
				</g>
			</g>
		</g>
	</g>
</g>
</svg>
